<?xml version="1.0" encoding="utf-8"?>
<!-- Generator: Adobe Illustrator 22.0.1, SVG Export Plug-In . SVG Version: 6.00 Build 0)  -->
<svg version="1.1" id="Layer_1" xmlns="http://www.w3.org/2000/svg" xmlns:xlink="http://www.w3.org/1999/xlink" x="0px" y="0px"
	 viewBox="0 0 1665 1744" style="enable-background:new 0 0 1665 1744;" xml:space="preserve">
<style type="text/css">
	.st0{fill:#FEFEFE;}
	.st1{fill:#EC2624;}
	.st2{fill:#8DC53F;}
</style>
<g>
	<g>
		<path class="st0" d="M1,873C1,583.8,1,294.7,0.9,5.5c0-3.7,0.8-4.6,4.6-4.6c552,0.1,1104,0.1,1656,0c3.7,0,4.6,0.8,4.6,4.6
			c-0.1,578.3-0.1,1156.7,0,1735c0,3.7-0.8,4.6-4.6,4.6c-552-0.1-1104-0.1-1656,0c-3.7,0-4.6-0.8-4.6-4.6C1,1451.3,1,1162.2,1,873z
			 M660.4,1215.3c-0.1-0.1-0.3-0.3-0.4-0.4c-0.2-2.3,0.9-4.2,1.6-6.2c7.1-21.8,14.3-43.6,21.2-65.4c3.8-11.8-0.8-20.9-11.3-23.7
			c-9.1-2.3-16.9,2.8-20.5,13.7c-9.4,28.7-18.7,57.5-28.1,86.3c-5.4,16.8-11.2,33.4-16.1,50.3c-3.5,12.2,5.4,22.4,17.7,21.2
			c7.6-0.8,11.7-5.8,14.1-12.4c2.3-6.4,4.2-13,6.3-19.4c2-6.3,4.1-12.5,6.6-19.9c7.8,20.1,15,39.1,22.4,57.9c1.3,3.4,2.7,6.8,4.6,10
			c3.8,6.6,9.9,9.2,16.9,7.7c6.4-1.3,11.4-7.1,12.2-14.2c0.4-3.6-0.8-6.9-2.1-10.1c-6.9-16.6-13.7-33.2-20.7-49.7
			c-1.2-2.9-1-4.3,2.1-5.6c8.3-3.4,16.5-7.1,24.7-10.7c4.2-1.9,8.7-3.3,12.5-6.1c6-4.5,8-12.4,4.9-19.2c-2.9-6.3-9.2-9.1-16.7-7.7
			c-3.8,0.7-7.3,2.3-10.7,4C687.9,1202.1,674.1,1208.7,660.4,1215.3z M1452.2,232.3c-45.6-14.9-91.2-29.8-136.9-44.7
			c-10.1-3.3-20.2-6.7-30.3-10c-161-52.8-321.9-105.6-482.9-158.4c-15.4-5.1-31.3-7.4-47.3-4.8c-42.9,6.8-71.8,30.9-85.6,72.1
			c-18.6,55.6-36.7,111.5-54.9,167.3c-0.4,1.3-1.4,2.6-0.7,4.2c0.8-0.2,1.5-0.4,2.1-0.5c30.9-7.8,59.6,5.5,71.1,33.1
			c4.8,11.4,6.1,23.4,6,35.7c0,78.5,0,157,0,235.5c0,1.7-0.6,3.5,0.7,5.3c24.8-19.5,49.4-38.9,74-58.2
			c30.8-24.2,61.8-48.1,92.3-72.6c16.8-13.5,35.6-15.4,55.2-10.4c33.5,8.6,51.5,43.9,41.2,78.6c-4.3,14.6-14.4,24.6-26.1,33.1
			c-41.5,30.4-83.2,60.6-124.9,90.8c-3.8,2.8-3.9,4.1-0.5,7.4c39.7,38,79.3,76.2,118.9,114.4c7.7,7.4,15.2,14.9,21.8,23.3
			c10.3,13.1,15.2,27.6,13.4,44.6c-4.6,43.3-55.5,68.7-92.6,46.1c-8.9-5.4-16.4-12.5-23.5-20c-48.7-51.4-97.4-102.9-146.2-154.2
			c-1-1.1-1.7-2.8-3.9-3c0,2,0,3.8,0,5.6c0,36.2,0,72.3,0,108.5c0,9-0.7,18-3,26.7c-7,26.7-26.6,42.9-54.5,44.9
			c-25.1,1.8-48.1-12.3-58.1-35.8c-4.7-11.1-6.3-22.7-6.3-34.6c0-135.8,0-271.7,0-407.5c0-1.9,0-3.8,0-5.7c-1.2,0.9-1.6,1.9-2,3
			c-45.5,138.9-91.1,277.7-136.6,416.6c-5.3,16.1-7.2,32.6-4,49.3c7.9,41.4,32,69.2,72.1,82.3c237.7,78.1,475.5,155.9,713.2,233.9
			c12.7,4.2,25.5,7.8,38.9,8.1c45.9,1,86.1-27.8,101-72.5c14.5-43.9,28.8-87.8,43.2-131.8c0.5-1.5,1.6-3,0.9-4.9
			c-1.7,0.5-2.7,1.9-3.8,3c-9,8.7-18.7,16.6-29.1,23.5c-25.4,16.9-53.1,22.5-82.9,15.7c-26.2-6-44-25.1-47.6-50.5
			c-3.7-26.3,7.2-45.5,29.4-59.1c7.5-4.6,15-9.4,22.2-14.4c12.7-8.7,20.8-20.8,25.1-35.6c4.5-15.5,5.8-31.4,5.8-47.4
			c0.1-104.3,0.1-208.7,0.1-313c0-7.5,0.5-15,2.1-22.3c5.8-26.5,24.4-43.5,51.5-47.2c24.2-3.3,48.6,9.3,60,31.1
			c6,11.5,8.2,23.9,8.2,36.7c0,114,0.1,228,0.1,342c0,3.9,0,7.9,0,11.8c3-6.7,5.3-13.6,7.5-20.4c48-146.4,96.2-292.8,144.1-439.3
			c18-55.1-10.3-112-64.9-130.8C1501.3,248.1,1476.7,240.3,1452.2,232.3z M361.1,1096.1c0,2.8,0,4.4,0,6c-0.6,28.7-1.3,57.3-1.9,86
			c-0.2,8,2.5,14.7,8.7,19.8c11.7,9.6,27.6,6.7,35.6-6.5c13.3-21.7,26.3-43.6,39.5-65.4c9.4-15.5,18.9-31,28-46.7
			c5.3-9.1,3.2-18.3-4.7-23.1c-8.9-5.4-18.4-3.4-24.6,5.2c-1.4,2-2.7,4.2-3.9,6.4c-14.6,26-29.2,51.9-43.8,77.9
			c-0.9,1.6-1.4,3.7-3.6,4.9c0-2.3,0-4.4,0-6.5c0.8-32.5,1.7-65,2.5-97.4c0.2-8.5-3.4-14.9-11.2-18.4c-8.8-3.9-17.7-1-23.8,7.9
			c-18.6,26.8-37,53.7-55.6,80.6c-0.9,1.3-1.4,3-3.2,3.7c0-1.6-0.1-3.1,0-4.5c2.1-18.2,4.3-36.4,6.4-54.6
			c1.6-14.1,3.5-28.1,4.6-42.2c0.8-11.2-6.4-18.7-17.1-19.2c-9.5-0.5-16.1,6-17.1,17c-1.9,21.1-3.8,42.1-5.6,63.2
			c-1.9,22.4-3.9,44.8-5.6,67.2c-1,13.1,7.2,22.9,20.2,24.7c10.1,1.4,17.9-2.5,23.6-10.7c16.2-23.4,32.4-46.8,48.7-70.2
			C358.2,1099.8,359.3,1098.5,361.1,1096.1z M790.4,1343.4c7-0.1,16.6-1,25.3-5.8c7.1-4,9.5-10.2,7-17.2c-2.5-7.1-8.1-10-16.3-8.7
			c-8.7,1.4-17.3,3.6-26.2,2.5c-16.3-2-28.6-14.6-28.5-28.9c0-4,0.9-4.7,4.8-3.4c21,7,42,13.7,63,20.4c9.7,3.1,15.3,0.1,18.4-9.6
			c3.3-10.4,3.3-21,1-31.6c-6.4-29.5-31.3-49.3-61.2-46.9c-26.3,2.1-43.6,17.8-53.2,41.6c-14.2,35.2,1,70.3,35.3,82.9
			C768.8,1342,778.2,1343.4,790.4,1343.4z M562,1269.4c8.5-0.2,18.1-1,26.8-5.9c7.1-4,9.5-10.2,7-17.2c-2.5-7.1-8.1-10-16.3-8.7
			c-8.7,1.4-17.3,3.6-26.2,2.5c-16.3-2-28.6-14.6-28.5-29c0-4,1-4.6,4.8-3.4c20.8,6.9,41.7,13.6,62.6,20.3c10.3,3.3,15.8,0.3,19-10
			c3.2-10.3,3.1-20.7,0.8-31.1c-5.8-26.8-28.3-46.3-54.2-47.1c-26.1-0.8-49.5,15.2-59.9,40.9c-11.7,28.9-4.3,58.5,18.8,75.2
			C529.8,1265.6,544.7,1269.3,562,1269.4z M941.8,1348.6c-0.1,31.1,14.6,52.6,38.5,61.2c24.4,8.7,49.9,1.5,66.2-19.2
			c13.2-16.7,18-35.7,14.4-56.7c-7-41.5-53.3-61.9-88.4-38.7C952,1308.9,942.6,1328.8,941.8,1348.6z M1187.8,1344.4
			c-1.8,0.1-4.6,0.3-7.4,0.6c-20.2,2.4-35.2,22-31.3,41.2c2.1,10.5,9.2,17.8,16.9,24.7c6.4,5.8,13.7,10.6,19.7,16.9
			c3.2,3.4,5,7.1,2.2,11.7c-2.7,4.4-6.9,4-11.1,3.1c-6.3-1.4-11.7-4.6-16.2-9.3c-3-3.1-5.9-6.4-9.2-9.1c-5.2-4.3-11.1-6-17.6-2.5
			c-8.8,4.8-10.5,13.6-4.5,23c12,18.8,40.5,30.8,62.5,26.2c25.3-5.2,40.3-35.1,19.7-57.3c-5.7-6.1-12.2-11.3-18.6-16.6
			c-4-3.3-8.2-6.3-11-10.8c-3.5-5.5-0.3-11.7,6.2-12.3c4.8-0.4,8.9,1.3,12.5,4.1c4.7,3.7,9.1,7.8,13.7,11.6c8.4,7.1,19.8,3.7,22.8-7
			c2.3-8.1-1.5-14.4-6.8-19.7C1218.8,1351.6,1204.9,1345.5,1187.8,1344.4z M886,1326.2c-0.3-0.1-0.6-0.2-0.9-0.3c0-1.6,0-3.3,0-4.9
			c0-21.2,0.1-42.3,0-63.5c0-9.6-5.4-15.4-14.7-16.4c-8.7-0.9-15.3,3.9-17.6,12.8c-1.1,4.3-0.6,8.6-0.4,12.9
			c0.5,9.8,1.1,19.6,1.7,29.4c1.3,20.8,2.5,41.6,3.9,62.4c0.4,6.5,3.9,10.8,9.8,13.3c9.8,4.2,16.2,2.8,23-5.5
			c19.8-24.1,39.5-48.2,59.2-72.3c2.1-2.6,4-5.3,5.1-8.5c2.6-7.8-0.1-15.1-7.3-19.3c-7.6-4.4-15.1-3.2-20.6,3.3
			c-1.4,1.7-2.6,3.4-3.9,5.2C910.8,1292,898.4,1309.1,886,1326.2z M1231.9,1477.6c0,8.7,4.5,14.6,12.6,16.6
			c9.2,2.3,16.8-2.8,20.4-13.7c7.4-22.6,14.8-45.1,22-67.8c1-3.2,2-4.4,5.5-2.9c2.7,1.2,5.7,1.9,8.6,2.4c7.6,1.4,13.5-2.1,15.9-9.4
			c2.6-7.5,0.4-13.7-6.6-17.3c-2.9-1.5-6.1-2.6-9.3-3.5c-2.8-0.8-3.7-1.9-2.6-4.9c2-5.4,3.9-11,5.4-16.6c2.6-10-1.7-18.5-10.4-21.4
			c-9.1-2.9-17.6,1.6-21.3,11.5c-1.7,4.5-3.3,9.1-4.4,13.8c-1.1,4.9-3,6.2-8.1,4.3c-8.7-3.2-16.2,0.4-19.1,8.3
			c-3.5,9.3,0.4,16.3,11.5,19.7c3.7,1.1,4.5,2.4,3.2,6.1c-7.4,22.1-14.4,44.2-21.6,66.3C1232.7,1472.1,1231.7,1474.9,1231.9,1477.6z
			 M1119.1,1335.4c-0.1-3.8,0.8-7.4-1.4-10.4c-4.5-6-10.7-8.3-17.9-7.9c-6.6,0.4-11.4,4.1-13.5,10.3c-9.8,29.5-19.4,59-28.8,88.6
			c-3.3,10.4,2.6,19.9,12.4,21.8c8.8,1.8,16.4-3.3,19.8-13.5c5.1-15.4,10.3-30.9,15.1-46.4c2.7-8.6,8.3-13.3,16.9-15
			c6.9-1.4,13.9-1.7,20.8-2.2c8.7-0.7,12.5-4.3,13.5-11.9c1.2-8.6-2.3-15.2-9.8-18.1c-6.3-2.5-12.7-2.5-18.9,0.4
			C1124.6,1332.2,1122.1,1333.8,1119.1,1335.4z M438.8,1220.6c0,7.6,3.9,13.1,11,15.5c9,3.1,17.7-1.2,21.3-11.2
			c3.8-10.6,7.1-21.4,10.6-32.2c5.9-18.2,11.9-36.3,17.5-54.5c3.3-10.6-2-19.7-12-22c-8.7-2-16.7,3-20,13.2
			c-9.2,27.9-18.2,55.9-27.2,83.8C439.1,1215.7,438.8,1218.1,438.8,1220.6z M479.9,1086.5c0,10.6,8,19.2,18.1,19.4
			c10.2,0.2,19-8.4,19.1-18.4c0.1-10.4-8.4-19.1-18.4-19C488.2,1068.6,480,1076.5,479.9,1086.5z M1398.3,971.6l0.3,0.2l0-0.4
			L1398.3,971.6z"/>
		<path class="st1" d="M1452.2,232.3c24.5,8,49,15.8,73.4,24.2c54.6,18.8,82.9,75.6,64.9,130.8c-47.9,146.5-96,292.9-144.1,439.3
			c-2.3,6.9-4.5,13.7-7.5,20.4c0-3.9,0-7.9,0-11.8c0-114,0-228-0.1-342c0-12.8-2.2-25.2-8.2-36.7c-11.4-21.8-35.8-34.5-60-31.1
			c-27.1,3.7-45.7,20.7-51.5,47.2c-1.6,7.4-2.1,14.8-2.1,22.3c0,104.3,0.1,208.7-0.1,313c0,16-1.3,31.9-5.8,47.4
			c-4.3,14.8-12.4,26.8-25.1,35.6c-7.3,5-14.7,9.7-22.2,14.4c-22.1,13.6-33.1,32.9-29.4,59.1c3.6,25.4,21.4,44.5,47.6,50.5
			c29.8,6.8,57.5,1.2,82.9-15.7c10.4-6.9,20.1-14.8,29.1-23.5c1.2-1.1,2.1-2.6,3.8-3c0.7,1.9-0.4,3.4-0.9,4.9
			c-14.4,43.9-28.7,87.9-43.2,131.8c-14.8,44.8-55,73.6-101,72.5c-13.5-0.3-26.2-3.9-38.9-8.1c-237.7-78-475.5-155.8-713.2-233.9
			c-40-13.1-64.2-40.9-72.1-82.3c-3.2-16.7-1.3-33.2,4-49.3c45.5-138.9,91.1-277.7,136.6-416.6c0.3-1,0.8-2.1,2-3c0,1.9,0,3.8,0,5.7
			c0,135.8,0,271.7,0,407.5c0,11.9,1.5,23.6,6.3,34.6c10,23.5,33,37.7,58.1,35.8c27.8-2,47.5-18.2,54.5-44.9
			c2.3-8.8,3.1-17.7,3-26.7c-0.1-36.2,0-72.3,0-108.5c0-1.8,0-3.6,0-5.6c2.2,0.2,2.9,1.9,3.9,3C745.6,741.2,794.3,792.6,843,844
			c7.1,7.5,14.6,14.6,23.5,20c37.1,22.7,88-2.8,92.6-46.1c1.8-17-3.1-31.5-13.4-44.6c-6.6-8.4-14.2-15.9-21.8-23.3
			c-39.6-38.2-79.2-76.3-118.9-114.4c-3.4-3.3-3.3-4.6,0.5-7.4c41.7-30.1,83.4-60.4,124.9-90.8c11.7-8.6,21.8-18.5,26.1-33.1
			c10.3-34.7-7.7-70-41.2-78.6c-19.6-5-38.4-3.1-55.2,10.4c-30.5,24.5-61.5,48.4-92.3,72.6c-24.6,19.3-49.2,38.7-74,58.2
			c-1.4-1.7-0.7-3.6-0.7-5.3c0-78.5-0.1-157,0-235.5c0-12.3-1.3-24.3-6-35.7c-11.5-27.6-40.2-40.9-71.1-33.1
			c-0.6,0.2-1.3,0.3-2.1,0.5c-0.7-1.6,0.3-2.9,0.7-4.2c18.2-55.8,36.3-111.6,54.9-167.3c13.8-41.2,42.7-65.3,85.6-72.1
			c16-2.5,31.8-0.3,47.3,4.8c161,52.8,321.9,105.6,482.9,158.4c10.1,3.3,20.2,6.6,30.3,10c-0.8,1-1.7,2.1-2.5,3.1
			c-16,19.2-22.5,41.1-18,65.9c6.2,34.1,34.8,60.7,68.7,64.3c36.7,3.8,70.5-16.4,83.6-49.9C1452.1,258.4,1453.4,245.6,1452.2,232.3z
			 M1015.4,516.6c0,93.8,0,187.6,0,281.5c0,5.5,0,11,0.7,16.5c2.8,23.8,13.2,42.8,36,53.1c9.8,4.4,20.2,4.9,30.8,4.9
			c36.3-0.2,72.7-0.1,109-0.1c6.3,0,12.7-0.2,18.9-1.3c22.1-4.2,39.3-15.2,47-37.1c7.9-22.5,4.9-43.9-11.1-62.2
			c-12.5-14.3-29.2-20.1-47.7-20.6c-18.5-0.5-37-0.4-55.5,0c-5.3,0.1-6.4-1.4-6.4-6.5c0.1-170.6,0.1-341.3,0.1-511.9
			c0-8-0.3-16-2.2-23.8c-5.7-23.7-19.5-40.2-43.8-45.4c-24.5-5.2-46.1,0.9-62.1,21.2c-10.9,13.9-13.7,30.3-13.7,47.5
			C1015.4,327,1015.4,421.8,1015.4,516.6z"/>
		<path class="st1" d="M361.1,1096.1c-1.8,2.4-2.9,3.7-3.9,5.2c-16.2,23.4-32.5,46.8-48.7,70.2c-5.7,8.3-13.5,12.1-23.6,10.7
			c-13-1.8-21.2-11.6-20.2-24.7c1.7-22.4,3.6-44.8,5.6-67.2c1.8-21.1,3.7-42.1,5.6-63.2c1-10.9,7.6-17.5,17.1-17
			c10.7,0.5,17.9,8,17.1,19.2c-1,14.1-2.9,28.1-4.6,42.2c-2.1,18.2-4.3,36.4-6.4,54.6c-0.2,1.4,0,2.9,0,4.5c1.8-0.7,2.3-2.4,3.2-3.7
			c18.5-26.9,37-53.7,55.6-80.6c6.1-8.9,15-11.8,23.8-7.9c7.9,3.5,11.5,9.9,11.2,18.4c-0.8,32.5-1.7,65-2.5,97.4
			c-0.1,2.1,0,4.1,0,6.5c2.2-1.2,2.7-3.3,3.6-4.9c14.6-25.9,29.2-51.9,43.8-77.9c1.2-2.2,2.4-4.4,3.9-6.4
			c6.1-8.6,15.7-10.6,24.6-5.2c7.9,4.8,10.1,14,4.7,23.1c-9.1,15.7-18.6,31.1-28,46.7c-13.1,21.8-26.2,43.6-39.5,65.4
			c-8.1,13.2-23.9,16-35.6,6.5c-6.2-5.1-8.9-11.9-8.7-19.8c0.6-28.7,1.3-57.3,1.9-86C361.1,1100.5,361.1,1098.9,361.1,1096.1z"/>
		<path class="st2" d="M1452.2,232.3c1.2,13.3-0.1,26.1-5,38.6c-13.1,33.5-46.9,53.8-83.6,49.9c-33.9-3.5-62.5-30.2-68.7-64.3
			c-4.5-24.8,2-46.7,18-65.9c0.8-1,1.7-2.1,2.5-3.1C1361,202.5,1406.6,217.4,1452.2,232.3z"/>
		<path class="st1" d="M660.4,1215.3c13.8-6.6,27.5-13.2,41.3-19.8c3.5-1.7,6.9-3.2,10.7-4c7.5-1.4,13.8,1.4,16.7,7.7
			c3.1,6.8,1.2,14.7-4.9,19.2c-3.8,2.8-8.3,4.2-12.5,6.1c-8.2,3.7-16.4,7.4-24.7,10.7c-3.1,1.3-3.4,2.6-2.1,5.6
			c7,16.5,13.8,33.1,20.7,49.7c1.3,3.2,2.5,6.5,2.1,10.1c-0.8,7.1-5.8,12.8-12.2,14.2c-7,1.4-13.1-1.2-16.9-7.7
			c-1.8-3.1-3.2-6.6-4.6-10c-7.3-18.9-14.6-37.8-22.4-57.9c-2.4,7.4-4.5,13.6-6.6,19.9c-2.1,6.5-4,13-6.3,19.4
			c-2.4,6.6-6.6,11.7-14.1,12.4c-12.3,1.3-21.3-9-17.7-21.2c4.9-16.9,10.6-33.6,16.1-50.3c9.3-28.8,18.7-57.5,28.1-86.3
			c3.6-10.9,11.4-16,20.5-13.7c10.6,2.7,15.1,11.9,11.3,23.7c-7,21.8-14.2,43.6-21.2,65.4c-0.7,2-1.8,4-1.6,6.2
			c-0.2,0.2-0.6,0.5-0.6,0.5C659.7,1215.9,660.1,1215.8,660.4,1215.3z"/>
		<path class="st1" d="M790.4,1343.4c-12.3,0-21.6-1.4-30.6-4.7c-34.3-12.6-49.5-47.7-35.3-82.9c9.6-23.8,26.9-39.5,53.2-41.6
			c29.9-2.4,54.8,17.3,61.2,46.9c2.3,10.6,2.4,21.1-1,31.6c-3.1,9.7-8.7,12.7-18.4,9.6c-21.1-6.7-42.1-13.4-63-20.4
			c-3.9-1.3-4.8-0.6-4.8,3.4c-0.1,14.4,12.3,26.9,28.5,28.9c9,1.1,17.5-1.1,26.2-2.5c8.2-1.3,13.8,1.6,16.3,8.7
			c2.5,7.1,0.1,13.3-7,17.2C807.1,1342.4,797.4,1343.3,790.4,1343.4z M809,1268.4c0.1-13.2-7.1-22.5-19.8-25.8
			c-11.1-2.9-23.2,2.6-29.2,13.2c-1.2,2.1-1.6,3.3,1.3,4.3c14.7,4.6,29.4,9.4,44.1,14.3c2.8,1,3.6,0.2,3.6-2.5
			C809,1270.7,809,1269.5,809,1268.4z"/>
		<path class="st1" d="M562,1269.4c-17.3-0.1-32.2-3.8-45.4-13.3c-23.1-16.7-30.5-46.3-18.8-75.2c10.4-25.7,33.8-41.7,59.9-40.9
			c25.9,0.8,48.4,20.3,54.2,47.1c2.3,10.4,2.4,20.8-0.8,31.1c-3.2,10.3-8.7,13.2-19,10c-20.9-6.7-41.8-13.4-62.6-20.3
			c-3.9-1.3-4.8-0.6-4.8,3.4c-0.1,14.4,12.2,26.9,28.5,29c9,1.1,17.5-1.1,26.2-2.5c8.2-1.3,13.8,1.6,16.3,8.7
			c2.5,7.1,0.1,13.3-7,17.2C580.1,1268.4,570.5,1269.3,562,1269.4z M582,1194.3c0.1-13.1-7.2-22.5-19.9-25.7
			c-11.1-2.9-23.3,2.8-29.2,13.3c-1.3,2.3-1.3,3.3,1.5,4.2c14.7,4.6,29.4,9.4,44.1,14.3c3,1,3.5-0.1,3.5-2.6
			C582,1196.6,582,1195.4,582,1194.3z"/>
		<path class="st1" d="M941.8,1348.6c0.8-19.8,10.2-39.8,30.8-53.4c35-23.2,81.4-2.7,88.4,38.7c3.5,21-1.3,40-14.4,56.7
			c-16.4,20.7-41.9,27.9-66.2,19.2C956.4,1401.3,941.7,1379.7,941.8,1348.6z M1029.2,1347.2c0.1-16.7-5.8-26.1-16.5-29.7
			c-10.8-3.6-21.6,0.5-29.3,11.5c-6.6,9.3-9.6,19.8-8.2,31.1c1.2,9.8,5.8,17.3,15.4,20.9c9.8,3.7,18.4,1.3,25.7-5.8
			C1025.1,1366.7,1029,1355.9,1029.2,1347.2z"/>
		<path class="st1" d="M1187.8,1344.4c17.1,1.1,31,7.2,42.5,18.5c5.3,5.3,9.2,11.6,6.8,19.7c-3,10.7-14.4,14.1-22.8,7
			c-4.6-3.9-9-7.9-13.7-11.6c-3.6-2.8-7.7-4.5-12.5-4.1c-6.5,0.5-9.7,6.8-6.2,12.3c2.8,4.4,7,7.5,11,10.8
			c6.4,5.3,12.9,10.5,18.6,16.6c20.6,22.2,5.6,52.1-19.7,57.3c-21.9,4.5-50.5-7.5-62.5-26.2c-6-9.5-4.4-18.2,4.5-23
			c6.4-3.5,12.3-1.8,17.6,2.5c3.3,2.7,6.2,6,9.2,9.1c4.5,4.7,9.9,7.9,16.2,9.3c4.2,0.9,8.4,1.4,11.1-3.1c2.8-4.5,1-8.3-2.2-11.7
			c-6-6.3-13.3-11.1-19.7-16.9c-7.6-6.9-14.7-14.2-16.9-24.7c-3.9-19.2,11.1-38.8,31.3-41.2
			C1183.1,1344.7,1186,1344.6,1187.8,1344.4z"/>
		<path class="st1" d="M886,1326.2c12.4-17.1,24.8-34.2,37.2-51.3c1.3-1.8,2.5-3.5,3.9-5.2c5.5-6.5,13.1-7.7,20.6-3.3
			c7.1,4.2,9.9,11.4,7.3,19.3c-1.1,3.2-2.9,6-5.1,8.5c-19.7,24.1-39.4,48.2-59.2,72.3c-6.8,8.3-13.2,9.7-23,5.5
			c-5.9-2.5-9.4-6.8-9.8-13.3c-1.3-20.8-2.6-41.6-3.9-62.4c-0.6-9.8-1.2-19.6-1.7-29.4c-0.2-4.3-0.8-8.6,0.4-12.9
			c2.3-8.8,9-13.7,17.6-12.8c9.3,1,14.7,6.8,14.7,16.4c0.1,21.2,0,42.3,0,63.5c0,1.6,0,3.3,0,4.9
			C885.3,1326,885.7,1326.1,886,1326.2z"/>
		<path class="st1" d="M1231.9,1477.6c-0.2-2.7,0.8-5.5,1.7-8.4c7.2-22.1,14.3-44.3,21.6-66.3c1.3-3.8,0.5-5-3.2-6.1
			c-11.1-3.4-15-10.4-11.5-19.7c3-7.9,10.4-11.5,19.1-8.3c5.1,1.9,7,0.6,8.1-4.3c1.1-4.7,2.7-9.2,4.4-13.8
			c3.7-9.9,12.2-14.4,21.3-11.5c8.8,2.8,13.1,11.3,10.4,21.4c-1.5,5.6-3.3,11.2-5.4,16.6c-1.1,3-0.3,4.1,2.6,4.9
			c3.2,0.9,6.4,2,9.3,3.5c6.9,3.6,9.1,9.8,6.6,17.3c-2.5,7.3-8.3,10.8-15.9,9.4c-2.9-0.5-5.9-1.2-8.6-2.4c-3.4-1.5-4.4-0.3-5.5,2.9
			c-7.2,22.6-14.6,45.2-22,67.8c-3.6,10.9-11.2,16-20.4,13.7C1236.4,1492.2,1231.8,1486.4,1231.9,1477.6z"/>
		<path class="st1" d="M1119.1,1335.4c3-1.6,5.5-3.2,8.2-4.4c6.2-2.9,12.6-2.8,18.9-0.4c7.5,2.9,11,9.6,9.8,18.1
			c-1.1,7.6-4.9,11.2-13.5,11.9c-7,0.6-13.9,0.9-20.8,2.2c-8.6,1.7-14.2,6.3-16.9,15c-4.8,15.6-9.9,31-15.1,46.4
			c-3.4,10.2-11,15.3-19.8,13.5c-9.9-2-15.7-11.4-12.4-21.8c9.3-29.6,19-59.1,28.8-88.6c2.1-6.2,6.9-9.8,13.5-10.3
			c7.2-0.4,13.4,1.9,17.9,7.9C1119.9,1328,1118.9,1331.6,1119.1,1335.4z"/>
		<path class="st1" d="M438.8,1220.6c0-2.5,0.3-4.9,1.1-7.4c9.1-27.9,18.1-55.9,27.2-83.8c3.3-10.1,11.2-15.1,20-13.2
			c10,2.3,15.3,11.4,12,22c-5.6,18.2-11.6,36.4-17.5,54.5c-3.5,10.7-6.8,21.5-10.6,32.2c-3.6,10-12.3,14.3-21.3,11.2
			C442.7,1233.7,438.8,1228.2,438.8,1220.6z"/>
		<path class="st1" d="M479.9,1086.5c0-10,8.3-17.9,18.7-18c10-0.1,18.5,8.6,18.4,19c-0.1,10-8.9,18.6-19.1,18.4
			C488,1105.7,479.9,1097.1,479.9,1086.5z"/>
		<polygon class="st1" points="1398.3,971.6 1398.6,971.4 1398.5,971.8 		"/>
		<path class="st0" d="M1015.4,516.6c0-94.8,0-189.6,0-284.5c0-17.2,2.8-33.7,13.7-47.5c16-20.3,37.6-26.4,62.1-21.2
			c24.3,5.2,38.1,21.7,43.8,45.4c1.9,7.8,2.2,15.8,2.2,23.8c0,170.6,0,341.3-0.1,511.9c0,5.1,1.1,6.6,6.4,6.5
			c18.5-0.3,37-0.5,55.5,0c18.5,0.5,35.2,6.3,47.7,20.6c16,18.3,19,39.7,11.1,62.2c-7.7,21.9-24.9,32.9-47,37.1
			c-6.3,1.2-12.6,1.3-18.9,1.3c-36.3,0-72.7-0.1-109,0.1c-10.6,0.1-21-0.4-30.8-4.9c-22.8-10.3-33.2-29.2-36-53.1
			c-0.6-5.4-0.7-11-0.7-16.5C1015.4,704.2,1015.4,610.4,1015.4,516.6z"/>
		<path class="st0" d="M660.4,1215.3c-0.3,0.5-0.6,0.6-1,0.1c0,0,0.4-0.3,0.6-0.5C660.1,1215.1,660.2,1215.2,660.4,1215.3z"/>
		<path class="st0" d="M809,1268.4c0,1.2,0,2.3,0,3.5c0.1,2.7-0.7,3.4-3.6,2.5c-14.7-4.9-29.4-9.6-44.1-14.3c-3-0.9-2.5-2.2-1.3-4.3
			c6-10.6,18.1-16.1,29.2-13.2C801.9,1245.9,809.1,1255.2,809,1268.4z"/>
		<path class="st0" d="M582,1194.3c0,1.2,0,2.3,0,3.5c0,2.5-0.5,3.6-3.5,2.6c-14.6-4.9-29.4-9.7-44.1-14.3c-2.8-0.9-2.8-2-1.5-4.2
			c5.9-10.6,18.1-16.2,29.2-13.3C574.8,1171.8,582.1,1181.1,582,1194.3z"/>
		<path class="st0" d="M1029.2,1347.2c-0.2,8.8-4.1,19.5-12.9,28.1c-7.3,7.1-15.9,9.5-25.7,5.8c-9.6-3.6-14.3-11.1-15.4-20.9
			c-1.3-11.4,1.6-21.8,8.2-31.1c7.7-10.9,18.5-15.1,29.3-11.5C1023.4,1321.1,1029.3,1330.4,1029.2,1347.2z"/>
	</g>
</g>
</svg>
