<svg version="1" xmlns="http://www.w3.org/2000/svg" width="1660" height="1660" viewBox="0 0 1245.000000 1245.000000"><path d="M353.5 14c-29.4 4.6-56 20.8-72.4 44-10.5 14.8-7.7 7.3-54 148.5-11 33.5-19.9 61-19.8 61.1.1.1 3.1-.4 6.7-1.2 14.2-3 29.2-1 42.5 5.5 16.4 8.1 27 22.5 32.3 44.1 1.4 5.7 1.6 22.4 2.1 140.1l.6 133.7 80.5-63.4c44.3-34.9 84.6-66.3 89.5-69.9 16.7-12 28.8-16.5 44.5-16.5 22.2 0 44.8 14.8 56.5 37.1 5.1 9.7 6.8 18.3 6.1 29.9-.9 14.9-4.6 24.9-13.1 36-8.2 10.6-11.9 13.5-94.8 73.5C429.5 639 404 657.7 404 658c0 .3 30.9 30.3 68.8 66.7 37.8 36.4 71.2 69 74.3 72.5 15.8 17.9 21.4 30.5 21.3 47.8 0 10.8-1.6 17.4-6.5 27.8-11.6 24.3-39.6 39.6-66.6 36.2-13.8-1.8-23.6-6.5-37-18-4.3-3.7-43.6-44.5-87.3-90.8l-79.5-84.1-.6 67.7c-.6 64.8-.7 68.1-2.7 75.9-4.4 16.7-12.6 30-23.6 37.7-10.5 7.4-16.9 9.9-29.5 11.5-15.6 2-31-1.6-43.8-10.1-12-8.1-20.9-21.2-25.6-37.7l-2.2-7.6-.5-225-.5-224.9-72.7 221.9c-40.1 122.1-73.6 225.1-74.5 229-1.2 5.1-1.7 11.2-1.6 22.5 0 17.2 1.9 27.1 8.3 42.2 10.5 25.5 34.2 48.1 60.2 57.8 11.9 4.3 760 249.4 768.8 251.7 8.3 2.3 11.4 2.6 25.5 2.6 14 0 17.2-.3 25.6-2.5 13.4-3.6 23.3-7.9 33.7-14.8 16-10.6 30.5-27.3 38.1-44.1 2.1-4.7 44.8-132.8 51.6-154.9.6-2-.6-1.3-5.6 3.5-15.4 14.6-34.7 28.2-47.8 33.6-4.1 1.7-11.8 4.2-17 5.6-8.4 2.3-11.7 2.6-26.6 2.6-14.4.1-18.2-.3-24.8-2.1-25-6.9-43.2-24.9-48.3-47.8-2.2-10-1.5-26.4 1.4-34.6 5.1-14.1 13.6-23.1 35.2-36.8 16.7-10.6 24-16.4 30.2-23.8 8-9.6 13.9-25.9 16.9-46.7 1-7 1.4-50.4 1.9-191.5.7-203.9-.1-185.4 7.9-201.5 7.3-14.7 19.3-25.1 34.8-30.3 6.7-2.2 9.6-2.5 20.3-2.6 11.1 0 13.4.3 20.5 2.8 16 5.5 28.3 16.2 35.4 30.9 8.3 16.8 7.5-3.4 8.1 214l.5 193.7 79.7-243.2c43.9-133.8 80.5-246.5 81.5-250.3 1.2-5.1 1.7-11.1 1.6-22.5 0-13.3-.4-16.8-2.5-25.1-5.4-20.1-14.6-36.4-28.2-50.2-8.6-8.6-22.6-18.3-32.9-22.6-6.6-2.7-82.9-28.1-84.5-28.1-.4 0-.7 4.8-.8 10.8-.5 65.9-75.4 104.4-130.4 66.9-39-26.6-47.4-82.1-18-118.8l5.1-6.4-6.8-2.2C796.5 147.4 400.8 18.1 394 16.4c-10.7-2.8-30.3-4-40.5-2.4zm354.3 155.6c10.4 2.6 18.1 7.2 26.3 15.3 8.6 8.6 13.4 17.2 17.2 30.6l2.2 8 .3 279.2.2 279.3h33.3c18.2 0 36.1.5 39.7 1 27.8 4.4 48.1 21.7 54.5 46.5 2.1 7.9 2.1 24.2.1 32.9-4.4 18.6-17.9 34-36.6 41.4-12.5 5-14.5 5.1-92 5.3-64.7.1-73.2-.1-79-1.6-11.4-2.9-18.8-7.2-27.6-16-9.3-9.2-14-17.6-17.7-31.5l-2.2-8.5v-313c0-296.9.1-313.4 1.8-320.6 5.4-22.9 20.8-40.6 41.2-47.3 11.4-3.7 26.2-4.1 38.3-1z"/></svg>